CddbId:8c0e7a1a:[150, 29694, 32533, 43389, 45151, 61068, 64165, 76724, 79433, 81994, 113824, 141893, 144854, 146825, 165660, 169002, 172335, 178637, 189823, 193704, 206954, 209771, 221849, 225556, 260943, 269278]:278100:74:8c0e7a1a 26 150 29694 32533 43389 45151 61068 64165 76724 79433 81994 113824 141893 144854 146825 165660 169002 172335 178637 189823 193704 206954 209771 221849 225556 260943 269278 3708: 26 0 0 0 0 0 0 0 0 0 0 0 0 0 0 0 0 0 0 0 0 0 0 0 0 0 0 3708
num_tracks: 26
offsets: [150, 29694, 32533, 43389, 45151, 61068, 64165, 76724, 79433, 81994, 113824, 141893, 144854, 146825, 165660, 169002, 172335, 178637, 189823, 193704, 206954, 209771, 221849, 225556, 260943, 269278]
extents: [0, 0, 0, 0, 0, 0, 0, 0, 0, 0, 0, 0, 0, 0, 0, 0, 0, 0, 0, 0, 0, 0, 0, 0, 0, 0]
total_length: 3708
cddb: [2349759002, 26, 150, 29694, 32533, 43389, 45151, 61068, 64165, 76724, 79433, 81994, 113824, 141893, 144854, 146825, 165660, 169002, 172335, 178637, 189823, 193704, 206954, 209771, 221849, 225556, 260943, 269278, 3708]
musicbrainz: ('26 150 29694 32533 43389 45151 61068 64165 76724 79433 81994 113824 141893 144854 146825 165660 169002 172335 178637 189823 193704 206954 209771 221849 225556 260943 269278 278168', 'gxLbb1T0B.yLGXamli1B9naHYZM-')

CD record:
Device type    : Removable CD-ROM
Version        : 0
Response Format: 1
Vendor_info    : 'SAMSUNG '
Identification : 'CD-ROM SC-148A  '
Revision       : 'B403'
Device seems to be: Generic mmc CD-ROM.
Using generic SCSI-3/mmc   CD-ROM driver (mmc_cd).
Driver flags   : MMC-2 SWABAUDIO 
Supported modes: 
first: 1 last 26
track:   1 lba:         0 (        0) 00:02:00 adr: 1 control: 2 mode: -1
track:   2 lba:     29544 (   118176) 06:35:69 adr: 1 control: 2 mode: -1
track:   3 lba:     32383 (   129532) 07:13:58 adr: 1 control: 2 mode: -1
track:   4 lba:     43239 (   172956) 09:38:39 adr: 1 control: 2 mode: -1
track:   5 lba:     45001 (   180004) 10:02:01 adr: 1 control: 2 mode: -1
track:   6 lba:     60918 (   243672) 13:34:18 adr: 1 control: 2 mode: -1
track:   7 lba:     64015 (   256060) 14:15:40 adr: 1 control: 2 mode: -1
track:   8 lba:     76574 (   306296) 17:02:74 adr: 1 control: 2 mode: -1
track:   9 lba:     79283 (   317132) 17:39:08 adr: 1 control: 2 mode: -1
track:  10 lba:     81844 (   327376) 18:13:19 adr: 1 control: 2 mode: -1
track:  11 lba:    113674 (   454696) 25:17:49 adr: 1 control: 2 mode: -1
track:  12 lba:    141743 (   566972) 31:31:68 adr: 1 control: 2 mode: -1
track:  13 lba:    144704 (   578816) 32:11:29 adr: 1 control: 2 mode: -1
track:  14 lba:    146675 (   586700) 32:37:50 adr: 1 control: 2 mode: -1
track:  15 lba:    165510 (   662040) 36:48:60 adr: 1 control: 2 mode: -1
track:  16 lba:    168852 (   675408) 37:33:27 adr: 1 control: 2 mode: -1
track:  17 lba:    172185 (   688740) 38:17:60 adr: 1 control: 2 mode: -1
track:  18 lba:    178487 (   713948) 39:41:62 adr: 1 control: 2 mode: -1
track:  19 lba:    189673 (   758692) 42:10:73 adr: 1 control: 2 mode: -1
track:  20 lba:    193554 (   774216) 43:02:54 adr: 1 control: 2 mode: -1
track:  21 lba:    206804 (   827216) 45:59:29 adr: 1 control: 2 mode: -1
track:  22 lba:    209621 (   838484) 46:36:71 adr: 1 control: 2 mode: -1
track:  23 lba:    221699 (   886796) 49:17:74 adr: 1 control: 2 mode: -1
track:  24 lba:    225406 (   901624) 50:07:31 adr: 1 control: 2 mode: -1
track:  25 lba:    260793 (  1043172) 57:59:18 adr: 1 control: 2 mode: -1
track:  26 lba:    269128 (  1076512) 59:50:28 adr: 1 control: 2 mode: -1
track:lout lba:    278018 (  1112072) 61:48:68 adr: 1 control: 2 mode: -1
